<svg width="22" height="22" viewBox="0 0 22 22" fill="none" xmlns="http://www.w3.org/2000/svg">
<path d="M11 7.505C9.065 7.505 7.505 9.08 7.505 11C7.505 12.92 9.08 14.495 11 14.495C12.92 14.495 14.495 12.92 14.495 11C14.495 9.08 12.92 7.505 11 7.505ZM21.5 11C21.5 9.545 21.5 8.12 21.425 6.665C21.35 4.985 20.96 3.485 19.73 2.27C18.5 1.04 17.015 0.65 15.335 0.575C13.88 0.5 12.455 0.5 11 0.5C9.545 0.5 8.12 0.5 6.665 0.575C4.985 0.65 3.485 1.04 2.27 2.27C1.04 3.5 0.65 4.985 0.575 6.665C0.5 8.12 0.5 9.545 0.5 11C0.5 12.455 0.5 13.88 0.575 15.335C0.65 17.015 1.04 18.515 2.27 19.73C3.5 20.96 4.985 21.35 6.665 21.425C8.12 21.5 9.545 21.5 11 21.5C12.455 21.5 13.88 21.5 15.335 21.425C17.015 21.35 18.515 20.96 19.73 19.73C20.96 18.5 21.35 17.015 21.425 15.335C21.515 13.895 21.5 12.455 21.5 11ZM11 16.385C8.015 16.385 5.615 13.985 5.615 11C5.615 8.015 8.015 5.615 11 5.615C13.985 5.615 16.385 8.015 16.385 11C16.385 13.985 13.985 16.385 11 16.385ZM16.61 6.65C15.92 6.65 15.35 6.095 15.35 5.39C15.35 4.685 15.905 4.13 16.61 4.13C17.315 4.13 17.87 4.685 17.87 5.39C17.8738 5.55431 17.8438 5.71764 17.7819 5.86987C17.7199 6.02211 17.6274 6.16 17.51 6.275C17.395 6.39241 17.2571 6.48495 17.1049 6.54687C16.9526 6.6088 16.7893 6.6388 16.625 6.635L16.61 6.65Z" fill="#DE56A0"/>
</svg>
